<?xml version="1.0" encoding="UTF-8"?>
<!-- Generator: Adobe Illustrator 26.0.3, SVG Export Plug-In . SVG Version: 6.00 Build 0)  -->
<svg version="1.1" xmlns="http://www.w3.org/2000/svg" xmlns:xlink="http://www.w3.org/1999/xlink" x="0px" y="0px" viewBox="0 0 373.04 90.71" style="enable-background:new 0 0 373.04 90.71;" xml:space="preserve">
<style type="text/css">
	.st0{fill:none;}
	.st1{fill:#8EBAE5;}
	.st2{fill:#00549F;}
	.st3{fill:#B8D698;}
	.st4{fill:#407FB7;}
	.st5{fill:#57AB27;}
	.st6{fill:#BFD0D1;}
	.st7{fill:#C7DDF2;}
	.st8{fill:#646567;}
</style>
<g id="Schutzraum">
	<rect y="0" class="st0" width="373.04" height="90.71"/>
	<rect y="0" class="st0" width="373.04" height="90.71"/>
	<rect y="0" class="st0" width="373.04" height="90.71"/>
	<rect y="0" class="st0" width="373.04" height="90.71"/>
	<rect y="0" class="st0" width="373.04" height="90.71"/>
</g>
<g id="Logo">
	<g>
		<path class="st1" d="M298.22,67.85h4.35v-9.11h2.32c1.75,0,2.5,1.03,2.57,2.72l0.12,4.13c0.03,0.84,0.12,1.66,0.54,2.26h4.71    v-0.18c-0.81-0.42-0.93-1.6-0.96-3.86c-0.06-4.56-0.51-6.19-3.47-6.58v-0.06c2.44-0.51,3.59-2.44,3.59-5.31    c0-3.68-2.17-5.55-5.73-5.55h-8.03V67.85z M302.56,49.51h2.05c1.96,0,3.02,1,3.02,2.99c0,2.32-1.18,3.23-3.26,3.23h-1.81V49.51z"/>
		<path class="st1" d="M234.16,46.31v15.03c0,5.76,3.35,6.94,6.88,6.94c3.53,0,6.88-1.45,6.88-6.94V46.31h-4.35v15.03    c0,2.14-0.51,3.74-2.54,3.74s-2.54-1.6-2.54-3.74V46.31H234.16z"/>
	</g>
	<polygon class="st1" points="248.98,46.31 248.98,67.85 252.96,67.85 252.96,52.76 253.02,52.76 258.33,67.85 263.28,67.85    263.28,46.31 259.3,46.31 259.3,61.06 259.24,61.06 253.99,46.31  "/>
	<rect x="264.4" y="46.31" class="st1" width="4.35" height="21.55"/>
	<polygon class="st1" points="269.04,46.31 273.99,67.85 279.57,67.85 284.52,46.31 280.03,46.31 276.83,62.24 276.74,62.24    273.69,46.31  "/>
	<polygon class="st1" points="284.91,46.31 284.91,67.85 297.25,67.85 297.25,64.29 289.26,64.29 289.26,58.5 296.5,58.5    296.5,54.94 289.26,54.94 289.26,49.87 296.95,49.87 296.95,46.31  "/>
	<g>
		<path class="st1" d="M312.34,61.12V62c0,3.98,1.93,6.28,6.85,6.28c4.71,0,7.48-2.05,7.48-6.61c0-2.62-0.85-4.28-4.1-5.7    l-3.35-1.45c-1.84-0.78-2.23-1.6-2.23-2.93c0-1.27,0.51-2.5,2.47-2.5c1.66,0,2.35,1.18,2.35,3.2h4.16v-0.6    c0-4.13-2.81-5.79-6.67-5.79c-4.1,0-6.67,2.14-6.67,6.34c0,3.59,1.78,5.19,5.64,6.52c2.87,1,3.86,1.72,3.86,3.68    c0,1.81-1.27,2.66-2.6,2.66c-2.29,0-2.87-1.3-2.87-3.32v-0.63H312.34z"/>
	</g>
	<rect x="327.24" y="46.31" class="st1" width="4.35" height="21.55"/>
	<polygon class="st1" points="354.16,46.31 351.14,54.63 351.08,54.63 348.24,46.31 332.16,46.31 332.16,49.87 336.86,49.87    336.86,67.85 341.21,67.85 341.21,49.87 344.87,49.87 348.93,59.37 348.93,67.85 353.28,67.85 353.28,59.37 358.86,46.31  "/>
	<g>
		<path class="st2" d="M195.98,44.35h-0.28h-6.92v-2.44V22.87v-0.16h6.91h0.01h4.88c3.2,0,5.96,2.07,6.86,4.82    c0.83,2.55,0.12,5.31-1.76,7.28c0.25,0.68,0.49,1.21,0.73,1.82c0.52,1.21,1,2.41,1.52,3.6l1.71,4.12h-0.04h-7.26    c0,0-0.06-0.17-0.12-0.25c-0.29-0.64-0.55-1.32-0.84-1.96l-1.76-4.17c-0.7-1.68-1.39-3.28-2.09-4.96    c0.87-0.02,1.52,0.14,2.36-0.25c0.59-0.29,1.48-1.01,1.51-2.39c-0.02-0.69-0.21-1.2-0.67-1.74c-0.46-0.5-1.11-0.87-1.97-0.89    c0,0-2.8,0-2.8,0V44.35z"/>
		<path class="st2" d="M271.19,22.71v21.64h-5.62h-1.58v-8.82h-0.67h-4.31h-0.06v8.82c-1.31,0-2.71-0.01-4.02,0h-3.18V27.71h-5.04    v0.52v1.57v7.13v7.42h-0.06h-7.14v-8.97v-0.35v-7.31h-5.08v7.85v8.78h-7.42c-1.29-3.12-2.66-6.27-3.92-9.38    c-0.14-0.65-0.29-1.31-0.48-1.95v11.32h-7.43c-1.47-3.43-2.89-6.78-4.36-10.26c-0.51-1.2-0.93-2.18-1.45-3.44l-0.07-0.16    l-1.14-2.68l-1.64-3.84c-0.14-0.43-0.38-0.83-0.52-1.26h7.41c1.52,3.7,3.06,7.36,4.66,11l0.04,0.09    c-0.06-0.42-0.19-0.96-0.26-1.36v-6.46c0.01-1.03,0-2.21,0-3.27h7.43c0.09,0.24,0.15,0.36,0.22,0.55c0.87,2.05,1.7,4.08,2.57,6.11    l1.95,4.43c-0.04-0.47-0.15-0.91-0.2-1.36v-9.73h0.6h5.05h18.29h5.2v1.35v6.46h0.35h4.69v-7.81h3.76H271.19z"/>
	</g>
	<path class="st1" d="M292.08,36.19l2.09-9.73h0.06l2.09,9.73H292.08z M277.65,36.19l2.09-9.73h0.06l2.09,9.73H277.65z M296.9,22.7   h-5.4l-4.52,17.06l-4.52-17.06h-5.4l-5.73,21.64h4.55l1-4.58h5.76l1,4.58h6.67l1-4.58h5.76l1,4.58h4.55L296.9,22.7z"/>
	<g>
		<path class="st1" d="M315.62,30.09c0-3.14-0.45-7.69-6.67-7.69c-6.52,0-7.33,4.65-7.33,11.19s0.82,11.19,7.33,11.19    c5.7,0,6.85-4.01,6.85-8.66h-4.35c0,4.65-1.15,5.46-2.72,5.46c-1.87,0-2.78-1.18-2.78-7.69c0-6.1,0.51-8.3,2.72-8.3    c1.96,0,2.6,1.36,2.6,4.5H315.62z"/>
	</g>
	<polygon class="st1" points="316.66,44.35 321.03,44.35 321.03,34.74 326.12,34.74 326.12,44.35 330.48,44.35 330.48,22.71    326.12,22.71 326.12,30.98 321.03,30.98 321.03,22.71 316.66,22.71  "/>
	<polygon class="st1" points="331.43,22.7 331.43,44.35 343.83,44.35 343.83,40.77 335.8,40.77 335.8,34.95 343.07,34.95    343.07,31.37 335.8,31.37 335.8,26.28 343.53,26.28 343.53,22.7  "/>
	<polygon class="st1" points="344.48,22.71 344.48,44.35 348.48,44.35 348.48,29.19 348.54,29.19 353.87,44.35 358.84,44.35    358.84,22.71 354.84,22.71 354.84,37.53 354.78,37.53 349.51,22.71  "/>
	<rect x="174.11" y="22.68" class="st2" width="1" height="45.35"/>
	
		<rect x="37.03" y="21.52" transform="matrix(0.7071 -0.7071 0.7071 0.7071 -6.1768 36.841)" class="st3" width="8.71" height="8.71"/>
	
		<rect x="32.4" y="19.08" transform="matrix(0.7071 -0.7071 0.7071 0.7071 -4.2626 32.2194)" class="st4" width="8.71" height="4.36"/>
	
		<rect x="33.04" y="22.42" transform="matrix(0.7071 -0.7071 0.7071 0.7071 -10.1602 33.3862)" class="st5" width="4.36" height="13.07"/>
	<polygon class="st1" points="32.14,28.96 29.06,25.88 38.3,16.63 35.22,13.55 22.9,25.88 29.06,32.04  "/>
	<polygon class="st6" points="44.46,28.96 47.54,25.88 38.3,16.63 41.38,13.55 53.71,25.88 47.54,32.04  "/>
	<polygon class="st2" points="44.46,28.96 38.3,35.12 32.14,28.96 29.06,32.04 38.3,41.28 47.54,32.04  "/>
	
		<rect x="28.42" y="27.95" transform="matrix(0.7071 -0.7071 0.7071 0.7071 -16.9599 32.3743)" class="st4" width="4.36" height="17.43"/>
	
		<rect x="37.29" y="34.48" transform="matrix(0.7071 -0.7071 0.7071 0.7071 -12.4482 43.2669)" class="st7" width="17.43" height="4.36"/>
	<g>
		<path class="st2" d="M102.06,66.27v0.19c0,0.26,0.03,0.5,0.09,0.71s0.17,0.39,0.32,0.54c0.15,0.15,0.35,0.26,0.6,0.35    c0.25,0.08,0.58,0.12,0.97,0.12c0.29,0,0.55-0.03,0.8-0.1c0.25-0.07,0.46-0.18,0.63-0.32c0.18-0.14,0.32-0.32,0.42-0.53    c0.1-0.21,0.15-0.46,0.15-0.74c0-0.41-0.09-0.73-0.27-0.96s-0.49-0.43-0.92-0.57l-0.83-0.28c-0.23-0.07-0.39-0.16-0.47-0.27    c-0.08-0.11-0.12-0.23-0.12-0.36c0-0.19,0.06-0.34,0.19-0.43c0.13-0.1,0.28-0.15,0.45-0.15c0.23,0,0.39,0.06,0.48,0.19    c0.09,0.13,0.13,0.33,0.13,0.62h1.24v-0.22c0-0.49-0.15-0.86-0.45-1.13c-0.3-0.27-0.76-0.4-1.39-0.4c-0.35,0-0.65,0.04-0.9,0.13    s-0.46,0.2-0.61,0.35c-0.16,0.15-0.28,0.32-0.35,0.51c-0.07,0.2-0.11,0.41-0.11,0.63c0,0.38,0.1,0.69,0.29,0.93    c0.19,0.24,0.48,0.43,0.86,0.57l0.97,0.35c0.13,0.05,0.25,0.12,0.35,0.22c0.1,0.09,0.15,0.22,0.15,0.39    c0,0.21-0.06,0.37-0.19,0.48c-0.13,0.11-0.3,0.16-0.51,0.16c-0.23,0-0.41-0.07-0.54-0.21c-0.12-0.14-0.18-0.33-0.18-0.57v-0.18    H102.06z M98.75,64.73v-0.21c0-0.13,0.01-0.25,0.04-0.38c0.02-0.13,0.06-0.24,0.11-0.35c0.05-0.1,0.12-0.19,0.22-0.25    c0.09-0.06,0.2-0.09,0.35-0.09c0.14,0,0.25,0.03,0.34,0.08c0.09,0.06,0.16,0.14,0.21,0.25c0.05,0.11,0.08,0.24,0.1,0.4    c0.02,0.16,0.03,0.34,0.04,0.54H98.75z M101.48,65.55v-0.31c0-0.41-0.03-0.79-0.08-1.12c-0.05-0.34-0.15-0.62-0.3-0.86    c-0.15-0.24-0.35-0.42-0.61-0.55c-0.26-0.13-0.58-0.19-0.99-0.19c-0.47,0-0.84,0.08-1.12,0.23c-0.28,0.15-0.5,0.36-0.65,0.62    s-0.25,0.56-0.3,0.89c-0.05,0.33-0.07,0.68-0.07,1.04c0,0.33,0.01,0.67,0.04,1.01s0.11,0.65,0.25,0.93    c0.13,0.28,0.34,0.5,0.62,0.68c0.28,0.17,0.67,0.26,1.17,0.26c0.66,0,1.14-0.17,1.45-0.5c0.31-0.34,0.47-0.82,0.5-1.44h-1.24    c-0.04,0.34-0.11,0.59-0.22,0.76c-0.11,0.17-0.28,0.25-0.51,0.25c-0.13,0-0.23-0.03-0.32-0.1c-0.09-0.07-0.16-0.16-0.21-0.28    c-0.05-0.12-0.09-0.25-0.11-0.4c-0.02-0.15-0.04-0.31-0.04-0.47v-0.43H101.48z M96.77,64.59c0-0.64-0.16-1.15-0.49-1.52    c-0.32-0.37-0.81-0.56-1.44-0.56c-0.32,0-0.61,0.04-0.88,0.13c-0.27,0.09-0.5,0.24-0.69,0.46c-0.19,0.22-0.34,0.51-0.45,0.87    c-0.11,0.36-0.16,0.82-0.16,1.37c0,0.54,0.04,0.99,0.13,1.36c0.09,0.36,0.21,0.65,0.39,0.87c0.17,0.22,0.38,0.37,0.64,0.46    c0.26,0.09,0.56,0.14,0.9,0.14c0.73,0,1.26-0.19,1.57-0.57c0.32-0.38,0.48-0.92,0.48-1.63h-1.32c0,0.44-0.05,0.76-0.16,0.96    c-0.11,0.2-0.28,0.3-0.51,0.3c-0.15,0-0.28-0.03-0.38-0.1c-0.1-0.07-0.17-0.18-0.22-0.33c-0.05-0.15-0.09-0.35-0.11-0.58    c-0.02-0.24-0.03-0.52-0.03-0.86c0-0.31,0.01-0.58,0.03-0.81c0.02-0.23,0.06-0.43,0.11-0.58c0.05-0.15,0.13-0.26,0.24-0.34    c0.1-0.08,0.24-0.11,0.42-0.11c0.13,0,0.23,0.03,0.32,0.09c0.08,0.06,0.15,0.15,0.19,0.25c0.04,0.1,0.07,0.22,0.09,0.35    c0.02,0.13,0.02,0.26,0.02,0.38H96.77z M87.78,68.03h1.38v-3.57c0-0.59,0.24-0.89,0.73-0.89c0.21,0,0.36,0.06,0.45,0.17    c0.09,0.11,0.14,0.31,0.14,0.58v3.71h1.38v-3.99c0-0.54-0.12-0.93-0.35-1.17c-0.24-0.24-0.57-0.36-1.01-0.36    c-0.3,0-0.57,0.06-0.8,0.18c-0.23,0.12-0.42,0.32-0.57,0.58H89.1v-0.63h-1.32V68.03z M84.25,64.73v-0.21    c0-0.13,0.01-0.25,0.03-0.38c0.02-0.13,0.06-0.24,0.11-0.35c0.05-0.1,0.12-0.19,0.22-0.25c0.09-0.06,0.21-0.09,0.35-0.09    s0.25,0.03,0.34,0.08c0.09,0.06,0.16,0.14,0.21,0.25c0.05,0.11,0.08,0.24,0.1,0.4c0.02,0.16,0.03,0.34,0.04,0.54H84.25z     M86.98,65.55v-0.31c0-0.41-0.03-0.79-0.08-1.12c-0.05-0.34-0.15-0.62-0.3-0.86c-0.15-0.24-0.35-0.42-0.61-0.55    c-0.26-0.13-0.58-0.19-0.99-0.19c-0.47,0-0.84,0.08-1.12,0.23c-0.28,0.15-0.5,0.36-0.65,0.62s-0.25,0.56-0.3,0.89    c-0.05,0.33-0.08,0.68-0.08,1.04c0,0.33,0.01,0.67,0.04,1.01c0.03,0.34,0.11,0.65,0.25,0.93c0.13,0.28,0.34,0.5,0.62,0.68    c0.28,0.17,0.67,0.26,1.17,0.26c0.66,0,1.14-0.17,1.45-0.5c0.31-0.34,0.47-0.82,0.5-1.44h-1.24c-0.04,0.34-0.11,0.59-0.22,0.76    c-0.11,0.17-0.28,0.25-0.51,0.25c-0.13,0-0.23-0.03-0.32-0.1c-0.09-0.07-0.16-0.16-0.21-0.28c-0.05-0.12-0.09-0.25-0.11-0.4    c-0.02-0.15-0.03-0.31-0.03-0.47v-0.43H86.98z M80.65,68.03h1.38v-5.38h-1.38V68.03z M80.65,61.99h1.38v-1.18h-1.38V61.99z     M79.83,64.59c0-0.64-0.16-1.15-0.49-1.52s-0.81-0.56-1.44-0.56c-0.32,0-0.61,0.04-0.88,0.13c-0.27,0.09-0.5,0.24-0.69,0.46    c-0.19,0.22-0.34,0.51-0.45,0.87c-0.11,0.36-0.16,0.82-0.16,1.37c0,0.54,0.04,0.99,0.13,1.36s0.22,0.65,0.39,0.87    c0.17,0.22,0.38,0.37,0.64,0.46c0.26,0.09,0.56,0.14,0.9,0.14c0.73,0,1.26-0.19,1.57-0.57c0.32-0.38,0.48-0.92,0.48-1.63h-1.32    c0,0.44-0.05,0.76-0.16,0.96s-0.28,0.3-0.51,0.3c-0.15,0-0.28-0.03-0.38-0.1s-0.17-0.18-0.22-0.33s-0.09-0.35-0.11-0.58    c-0.02-0.24-0.03-0.52-0.03-0.86c0-0.31,0.01-0.58,0.03-0.81c0.02-0.23,0.06-0.43,0.11-0.58s0.13-0.26,0.24-0.34    c0.1-0.08,0.24-0.11,0.42-0.11c0.13,0,0.23,0.03,0.32,0.09s0.15,0.15,0.19,0.25s0.07,0.22,0.09,0.35    c0.02,0.13,0.03,0.26,0.03,0.38H79.83z M70.34,65.8v0.29c0,0.66,0.17,1.17,0.52,1.54c0.35,0.36,0.93,0.54,1.75,0.54    c0.78,0,1.39-0.18,1.82-0.53c0.44-0.35,0.66-0.91,0.66-1.66c0-0.22-0.02-0.42-0.06-0.6c-0.04-0.18-0.11-0.35-0.21-0.5    c-0.1-0.15-0.24-0.29-0.42-0.42c-0.18-0.13-0.4-0.25-0.66-0.38l-1.11-0.48c-0.31-0.13-0.51-0.26-0.6-0.42    c-0.09-0.15-0.14-0.33-0.14-0.56c0-0.11,0.01-0.21,0.04-0.31c0.02-0.1,0.07-0.19,0.13-0.26c0.06-0.08,0.15-0.14,0.26-0.19    c0.11-0.05,0.24-0.07,0.4-0.07c0.28,0,0.48,0.09,0.6,0.28c0.12,0.18,0.18,0.44,0.18,0.79h1.38v-0.2c0-0.34-0.06-0.63-0.17-0.88    c-0.11-0.24-0.26-0.44-0.46-0.6s-0.43-0.27-0.7-0.34c-0.27-0.07-0.57-0.1-0.89-0.1c-0.69,0-1.23,0.17-1.62,0.52    s-0.59,0.87-0.59,1.58c0,0.29,0.04,0.55,0.11,0.78c0.07,0.22,0.19,0.42,0.34,0.59c0.16,0.17,0.35,0.32,0.59,0.45    c0.23,0.13,0.51,0.24,0.83,0.35c0.24,0.08,0.44,0.16,0.61,0.24c0.16,0.08,0.29,0.16,0.39,0.25c0.1,0.09,0.17,0.2,0.22,0.32    c0.04,0.12,0.07,0.25,0.07,0.41c0,0.3-0.09,0.52-0.27,0.67c-0.18,0.14-0.38,0.21-0.59,0.21c-0.19,0-0.35-0.03-0.47-0.08    c-0.12-0.05-0.22-0.13-0.29-0.22c-0.07-0.09-0.12-0.21-0.15-0.35c-0.03-0.14-0.04-0.29-0.04-0.45V65.8H70.34z"/>
		<path class="st2" d="M156.36,56.69h1.38v-3.57c0-0.59,0.24-0.89,0.73-0.89c0.21,0,0.36,0.06,0.45,0.17    c0.09,0.11,0.14,0.31,0.14,0.58v3.71h1.38V52.7c0-0.54-0.12-0.93-0.36-1.17c-0.24-0.24-0.57-0.36-1.01-0.36    c-0.3,0-0.57,0.06-0.8,0.18c-0.23,0.12-0.42,0.32-0.57,0.58h-0.02v-0.63h-1.32V56.69z M152.72,53.24c0.01-0.23,0.04-0.43,0.1-0.6    s0.12-0.3,0.22-0.39c0.1-0.09,0.23-0.14,0.4-0.14c0.28,0,0.47,0.15,0.58,0.44c0.11,0.29,0.16,0.78,0.16,1.45s-0.05,1.16-0.16,1.45    c-0.11,0.29-0.3,0.44-0.58,0.44c-0.17,0-0.31-0.05-0.4-0.14c-0.1-0.09-0.17-0.22-0.22-0.39s-0.08-0.37-0.1-0.6    c-0.01-0.23-0.02-0.49-0.02-0.76S152.7,53.48,152.72,53.24 M151.42,55.24c0.07,0.35,0.18,0.65,0.34,0.89    c0.16,0.24,0.38,0.42,0.65,0.53c0.27,0.12,0.62,0.17,1.03,0.17c0.39,0,0.73-0.06,0.99-0.19c0.27-0.12,0.49-0.3,0.66-0.54    c0.17-0.24,0.29-0.53,0.36-0.88c0.07-0.35,0.11-0.76,0.11-1.22c0-0.47-0.03-0.88-0.1-1.24c-0.07-0.36-0.18-0.65-0.34-0.9    c-0.16-0.24-0.38-0.42-0.65-0.53c-0.27-0.12-0.62-0.17-1.03-0.16c-0.39,0-0.72,0.06-0.99,0.18s-0.49,0.3-0.65,0.54    c-0.17,0.24-0.29,0.53-0.36,0.88c-0.07,0.35-0.11,0.76-0.11,1.22C151.32,54.48,151.35,54.89,151.42,55.24 M149.09,56.69h1.38    v-5.38h-1.38V56.69z M149.09,50.65h1.38v-1.18h-1.38V50.65z M146.25,51.31h-0.7v0.94h0.7v3.08c0,0.27,0.02,0.5,0.05,0.68    c0.03,0.18,0.1,0.32,0.18,0.43s0.22,0.19,0.38,0.24c0.17,0.05,0.39,0.07,0.66,0.07c0.16,0,0.31-0.01,0.46-0.02    c0.14-0.01,0.29-0.03,0.44-0.04v-0.96c-0.05,0.01-0.1,0.01-0.15,0.01c-0.05,0-0.11,0.01-0.16,0.01c-0.2,0-0.33-0.04-0.39-0.13    c-0.06-0.09-0.1-0.24-0.1-0.46v-2.91h0.8v-0.94h-0.8v-1.54h-1.38V51.31z M143.6,55.06c0,0.15-0.03,0.28-0.08,0.38    c-0.05,0.1-0.12,0.19-0.21,0.26c-0.08,0.07-0.18,0.11-0.27,0.15c-0.1,0.03-0.2,0.04-0.29,0.04c-0.19,0-0.32-0.07-0.4-0.22    c-0.08-0.15-0.12-0.32-0.12-0.53c0-0.24,0.06-0.43,0.18-0.57c0.12-0.14,0.32-0.24,0.6-0.3c0.09-0.02,0.18-0.05,0.29-0.1    c0.11-0.04,0.21-0.1,0.3-0.17V55.06z M142.32,52.96v-0.15c0-0.21,0.05-0.38,0.16-0.51c0.11-0.13,0.27-0.19,0.48-0.19    c0.23,0,0.4,0.06,0.49,0.17s0.15,0.28,0.15,0.49c0,0.18-0.04,0.32-0.12,0.41s-0.22,0.17-0.43,0.22l-0.78,0.21    c-0.24,0.07-0.44,0.14-0.61,0.23c-0.17,0.09-0.31,0.19-0.42,0.33s-0.19,0.29-0.24,0.47c-0.05,0.18-0.08,0.4-0.08,0.65    c0,0.18,0.02,0.36,0.07,0.54c0.05,0.18,0.12,0.35,0.22,0.5c0.1,0.15,0.23,0.27,0.4,0.36c0.17,0.09,0.37,0.14,0.61,0.14    c0.33,0,0.6-0.05,0.82-0.14c0.21-0.09,0.4-0.28,0.55-0.56h0.02c0.02,0.09,0.04,0.19,0.07,0.28s0.06,0.19,0.1,0.27h1.32    c-0.07-0.16-0.11-0.31-0.14-0.45c-0.02-0.14-0.03-0.34-0.03-0.59v-2.83c0-0.24-0.03-0.46-0.08-0.67c-0.05-0.2-0.14-0.38-0.28-0.52    s-0.34-0.26-0.6-0.34c-0.26-0.08-0.59-0.12-1-0.12c-0.26,0-0.5,0.03-0.74,0.08c-0.23,0.06-0.43,0.15-0.6,0.28s-0.31,0.3-0.4,0.51    c-0.1,0.21-0.15,0.47-0.15,0.78v0.13H142.32z M138.71,56.69h1.38v-7.14h-1.38V56.69z M136.38,56.69h1.32v-5.38h-1.38v3.57    c0,0.59-0.24,0.89-0.73,0.89c-0.21,0-0.36-0.06-0.45-0.17S135,55.3,135,55.02v-3.71h-1.38v3.99c0,0.54,0.12,0.93,0.36,1.17    c0.24,0.24,0.57,0.36,1.01,0.36c0.3,0,0.57-0.06,0.8-0.19c0.23-0.12,0.42-0.32,0.57-0.58h0.02V56.69z M126,56.69h1.38v-3.54    c0-0.32,0.06-0.55,0.19-0.7c0.13-0.15,0.31-0.22,0.52-0.22c0.19,0,0.33,0.06,0.42,0.18c0.08,0.12,0.12,0.29,0.12,0.52v3.76h1.38    v-3.54c0-0.32,0.06-0.55,0.19-0.7s0.31-0.22,0.52-0.22c0.19,0,0.33,0.06,0.42,0.18c0.08,0.12,0.12,0.29,0.12,0.52v3.76h1.38v-3.91    c0-0.52-0.11-0.92-0.33-1.19c-0.22-0.28-0.55-0.41-1.01-0.41c-0.33,0-0.61,0.07-0.85,0.22c-0.24,0.14-0.41,0.36-0.51,0.64h-0.02    c-0.07-0.28-0.22-0.49-0.43-0.64c-0.22-0.15-0.49-0.22-0.81-0.22c-0.3,0-0.56,0.05-0.77,0.16c-0.22,0.11-0.41,0.28-0.58,0.53    h-0.02v-0.55H126V56.69z M123.62,56.69H125v-5.38h-1.38V56.69z M123.62,50.65H125v-1.18h-1.38V50.65z M118.08,54.46v0.29    c0,0.66,0.17,1.17,0.52,1.53c0.35,0.36,0.93,0.55,1.75,0.55c0.78,0,1.39-0.18,1.82-0.53c0.44-0.35,0.66-0.91,0.66-1.66    c0-0.22-0.02-0.42-0.06-0.6s-0.11-0.35-0.21-0.49c-0.1-0.15-0.24-0.29-0.42-0.42c-0.18-0.13-0.4-0.26-0.67-0.38l-1.11-0.48    c-0.31-0.13-0.51-0.26-0.6-0.42c-0.09-0.15-0.14-0.33-0.14-0.56c0-0.11,0.01-0.21,0.04-0.31c0.02-0.1,0.07-0.19,0.13-0.27    c0.06-0.08,0.15-0.14,0.26-0.18c0.11-0.05,0.24-0.07,0.4-0.07c0.28,0,0.48,0.09,0.6,0.27c0.12,0.18,0.18,0.44,0.18,0.78h1.38v-0.2    c0-0.34-0.06-0.63-0.17-0.88s-0.26-0.44-0.46-0.6c-0.2-0.16-0.43-0.27-0.7-0.34c-0.27-0.07-0.57-0.1-0.89-0.1    c-0.69,0-1.23,0.17-1.62,0.52c-0.39,0.35-0.59,0.87-0.59,1.58c0,0.29,0.04,0.55,0.11,0.77c0.07,0.22,0.19,0.42,0.35,0.59    c0.16,0.17,0.35,0.32,0.58,0.44c0.23,0.13,0.51,0.24,0.83,0.35c0.24,0.08,0.44,0.16,0.61,0.23c0.16,0.08,0.29,0.16,0.39,0.26    c0.1,0.09,0.17,0.2,0.22,0.32c0.04,0.12,0.07,0.25,0.07,0.41c0,0.3-0.09,0.52-0.27,0.67c-0.18,0.14-0.38,0.22-0.59,0.22    c-0.19,0-0.35-0.03-0.47-0.08c-0.12-0.05-0.22-0.13-0.29-0.22c-0.07-0.09-0.12-0.21-0.15-0.35c-0.03-0.14-0.04-0.29-0.04-0.45    v-0.21H118.08z M111.71,50.58c0.12-0.1,0.26-0.15,0.44-0.15c0.19,0,0.34,0.05,0.45,0.15c0.12,0.1,0.18,0.25,0.18,0.44    c0,0.13-0.03,0.26-0.11,0.39c-0.07,0.13-0.18,0.26-0.34,0.4l-0.26,0.22l-0.17-0.24c-0.24-0.32-0.36-0.58-0.36-0.78    C111.54,50.83,111.59,50.68,111.71,50.58 M112.96,55.26c-0.24,0.3-0.55,0.45-0.93,0.45c-0.16,0-0.3-0.03-0.43-0.08    c-0.13-0.06-0.23-0.13-0.32-0.22c-0.08-0.09-0.15-0.19-0.19-0.3c-0.04-0.11-0.07-0.22-0.07-0.33c0-0.22,0.05-0.42,0.15-0.61    c0.1-0.19,0.29-0.39,0.58-0.6L112.96,55.26z M112.72,52.89c0.42-0.3,0.73-0.59,0.93-0.88c0.2-0.29,0.31-0.61,0.31-0.97    c0-0.21-0.04-0.4-0.11-0.58s-0.18-0.34-0.32-0.47c-0.15-0.14-0.33-0.24-0.56-0.32c-0.22-0.08-0.49-0.12-0.79-0.12    c-0.27,0-0.51,0.03-0.74,0.1c-0.22,0.07-0.42,0.17-0.57,0.3c-0.16,0.13-0.29,0.29-0.38,0.47c-0.09,0.19-0.14,0.39-0.14,0.62    c0,0.1,0.01,0.2,0.02,0.29c0.01,0.09,0.04,0.19,0.07,0.29c0.03,0.1,0.08,0.21,0.15,0.32c0.06,0.11,0.14,0.24,0.24,0.39l0.25,0.37    c-0.45,0.28-0.8,0.59-1.06,0.93c-0.26,0.34-0.38,0.72-0.38,1.13c0,0.2,0.03,0.42,0.09,0.66s0.17,0.46,0.33,0.67    c0.16,0.21,0.38,0.38,0.67,0.52c0.28,0.14,0.65,0.21,1.1,0.21c0.36,0,0.69-0.06,1-0.19c0.3-0.12,0.54-0.29,0.72-0.51l0.4,0.55    h1.53l-0.94-1.32c0.21-0.31,0.39-0.64,0.53-0.99c0.14-0.36,0.21-0.73,0.21-1.11h-1.24c0,0.15-0.02,0.33-0.07,0.54    c-0.05,0.21-0.11,0.39-0.18,0.54L112.72,52.89z M105.3,51.31v0.6h-0.02c-0.13-0.28-0.3-0.47-0.51-0.58    c-0.21-0.11-0.41-0.16-0.6-0.16c-0.37,0-0.67,0.08-0.89,0.25c-0.22,0.17-0.39,0.38-0.51,0.64c-0.12,0.26-0.19,0.56-0.23,0.89    c-0.04,0.33-0.06,0.65-0.06,0.96c0,0.98,0.14,1.68,0.42,2.1c0.28,0.42,0.69,0.62,1.24,0.62c0.22,0,0.43-0.06,0.64-0.18    c0.2-0.12,0.38-0.28,0.51-0.48h0.02v0.71c0,0.28-0.06,0.51-0.17,0.69c-0.11,0.18-0.31,0.28-0.59,0.28c-0.09,0-0.17-0.01-0.25-0.04    c-0.08-0.03-0.15-0.06-0.21-0.11c-0.14-0.1-0.21-0.24-0.21-0.41h-1.32c0,0.46,0.16,0.81,0.48,1.06c0.32,0.25,0.77,0.38,1.35,0.38    c0.81,0,1.38-0.17,1.72-0.51c0.34-0.34,0.52-0.88,0.52-1.59v-5.11H105.3z M103.88,53.26c0.02-0.25,0.05-0.45,0.1-0.6    c0.05-0.15,0.13-0.26,0.22-0.32c0.09-0.07,0.22-0.1,0.37-0.1c0.27,0,0.46,0.14,0.56,0.41c0.1,0.27,0.15,0.74,0.15,1.39    c0,0.23-0.01,0.44-0.03,0.62c-0.02,0.19-0.06,0.35-0.12,0.49c-0.06,0.13-0.13,0.24-0.23,0.32c-0.1,0.08-0.22,0.11-0.37,0.11    c-0.15,0-0.26-0.04-0.35-0.11c-0.09-0.08-0.16-0.18-0.21-0.31c-0.05-0.13-0.08-0.28-0.1-0.44c-0.02-0.17-0.03-0.34-0.03-0.53    C103.86,53.81,103.86,53.51,103.88,53.26 M97.55,56.69h1.38v-3.57c0-0.59,0.24-0.89,0.73-0.89c0.21,0,0.36,0.06,0.45,0.17    c0.09,0.11,0.14,0.31,0.14,0.58v3.71h1.38V52.7c0-0.54-0.12-0.93-0.36-1.17c-0.24-0.24-0.57-0.36-1.01-0.36    c-0.3,0-0.57,0.06-0.8,0.18c-0.23,0.12-0.42,0.32-0.57,0.58h-0.02v-0.63h-1.32V56.69z M95.16,56.69h1.38v-5.38h-1.38V56.69z     M95.16,50.65h1.38v-1.18h-1.38V50.65z M92.76,56.69h1.38v-7.14h-1.38V56.69z M89.19,53.39v-0.21c0-0.13,0.01-0.25,0.03-0.38    c0.02-0.13,0.06-0.24,0.12-0.34c0.05-0.1,0.12-0.19,0.21-0.25c0.09-0.06,0.21-0.1,0.35-0.1s0.25,0.03,0.35,0.08    c0.09,0.06,0.16,0.14,0.21,0.25s0.08,0.24,0.11,0.4c0.02,0.16,0.03,0.34,0.04,0.54H89.19z M91.92,54.21V53.9    c0-0.41-0.03-0.79-0.08-1.12c-0.05-0.34-0.15-0.62-0.3-0.86c-0.15-0.24-0.35-0.42-0.6-0.55c-0.26-0.13-0.59-0.19-0.99-0.19    c-0.47,0-0.84,0.08-1.12,0.23s-0.5,0.36-0.64,0.62c-0.15,0.26-0.25,0.56-0.3,0.89s-0.07,0.68-0.07,1.04    c0,0.33,0.01,0.67,0.04,1.01s0.11,0.65,0.24,0.93c0.13,0.28,0.34,0.5,0.62,0.67s0.67,0.26,1.17,0.26c0.66,0,1.14-0.17,1.45-0.51    c0.31-0.34,0.47-0.82,0.5-1.44H90.6c-0.04,0.34-0.11,0.59-0.22,0.76c-0.11,0.17-0.28,0.25-0.51,0.25c-0.13,0-0.23-0.03-0.32-0.1    c-0.09-0.07-0.16-0.16-0.21-0.28c-0.05-0.12-0.09-0.25-0.12-0.4c-0.02-0.15-0.03-0.31-0.03-0.47v-0.43H91.92z M84.3,52.68    c0.09-0.3,0.28-0.44,0.58-0.44c0.31,0,0.5,0.15,0.6,0.44c0.09,0.3,0.13,0.74,0.13,1.33c0,0.59-0.04,1.03-0.13,1.33    c-0.09,0.3-0.29,0.44-0.6,0.44c-0.3,0-0.5-0.15-0.58-0.44c-0.09-0.3-0.14-0.74-0.14-1.33C84.17,53.42,84.21,52.98,84.3,52.68     M85.68,56.69H87v-7.14h-1.38v2.26H85.6c-0.15-0.21-0.31-0.37-0.5-0.48c-0.18-0.11-0.4-0.16-0.67-0.16    c-0.57,0-0.98,0.22-1.25,0.66c-0.27,0.44-0.4,1.17-0.4,2.17s0.13,1.72,0.4,2.17c0.27,0.44,0.68,0.67,1.25,0.67    c0.28,0,0.52-0.06,0.71-0.17c0.19-0.11,0.36-0.29,0.51-0.55h0.02V56.69z M79.27,53.24c0.01-0.23,0.05-0.43,0.1-0.6    c0.05-0.17,0.12-0.3,0.22-0.39c0.1-0.09,0.23-0.14,0.4-0.14c0.28,0,0.47,0.15,0.58,0.44c0.11,0.29,0.16,0.78,0.16,1.45    s-0.05,1.16-0.16,1.45c-0.11,0.29-0.3,0.44-0.58,0.44c-0.17,0-0.31-0.05-0.4-0.14c-0.1-0.09-0.17-0.22-0.22-0.39    c-0.05-0.17-0.08-0.37-0.1-0.6c-0.01-0.23-0.02-0.49-0.02-0.76S79.26,53.48,79.27,53.24 M77.97,55.24    c0.07,0.35,0.18,0.65,0.34,0.89c0.16,0.24,0.38,0.42,0.65,0.53c0.27,0.12,0.62,0.17,1.03,0.17c0.39,0,0.72-0.06,1-0.19    c0.27-0.12,0.49-0.3,0.65-0.54c0.17-0.24,0.29-0.53,0.36-0.88c0.07-0.35,0.11-0.76,0.11-1.22c0-0.47-0.03-0.88-0.1-1.24    c-0.07-0.36-0.18-0.65-0.34-0.9c-0.16-0.24-0.38-0.42-0.65-0.53c-0.27-0.12-0.62-0.17-1.03-0.16c-0.39,0-0.72,0.06-0.99,0.18    c-0.27,0.12-0.49,0.3-0.66,0.54c-0.17,0.24-0.29,0.53-0.36,0.88c-0.07,0.35-0.11,0.76-0.11,1.22    C77.87,54.48,77.9,54.89,77.97,55.24 M70.65,56.69h1.32v-5.7h0.02l1.27,5.7h1.12l1.27-5.7h0.02v5.7h1.32v-7.14h-2.13l-1.03,5.04    h-0.02l-1.02-5.04h-2.14V56.69z"/>
		<path class="st2" d="M115.53,43.72c0,0.15-0.03,0.28-0.08,0.39c-0.05,0.1-0.12,0.19-0.21,0.25c-0.08,0.07-0.18,0.12-0.28,0.15    c-0.1,0.03-0.2,0.05-0.29,0.05c-0.19,0-0.32-0.07-0.4-0.22c-0.08-0.15-0.12-0.32-0.12-0.53c0-0.24,0.06-0.43,0.18-0.57    c0.12-0.14,0.32-0.24,0.6-0.3c0.09-0.02,0.18-0.05,0.29-0.1c0.11-0.04,0.21-0.1,0.3-0.17V43.72z M114.25,41.62v-0.15    c0-0.21,0.05-0.38,0.16-0.51c0.11-0.13,0.27-0.19,0.48-0.19c0.23,0,0.4,0.06,0.5,0.18c0.1,0.12,0.15,0.28,0.15,0.49    c0,0.18-0.04,0.32-0.12,0.41c-0.08,0.09-0.22,0.17-0.43,0.22l-0.78,0.21c-0.24,0.07-0.44,0.14-0.62,0.23    c-0.17,0.09-0.31,0.19-0.42,0.32c-0.11,0.13-0.19,0.29-0.24,0.47c-0.05,0.18-0.08,0.4-0.08,0.65c0,0.18,0.02,0.36,0.07,0.55    c0.05,0.18,0.12,0.35,0.22,0.49s0.23,0.27,0.4,0.36c0.17,0.09,0.37,0.14,0.61,0.14c0.33,0,0.61-0.05,0.82-0.14s0.4-0.28,0.56-0.56    h0.02c0.02,0.09,0.04,0.19,0.06,0.28c0.02,0.1,0.06,0.19,0.11,0.28h1.32c-0.07-0.16-0.11-0.31-0.14-0.45    c-0.02-0.14-0.03-0.34-0.03-0.59v-2.83c0-0.24-0.03-0.46-0.08-0.67c-0.05-0.2-0.14-0.38-0.28-0.53c-0.14-0.15-0.34-0.26-0.6-0.34    c-0.26-0.08-0.59-0.12-1-0.12c-0.26,0-0.5,0.03-0.74,0.08c-0.23,0.06-0.43,0.15-0.6,0.28c-0.17,0.13-0.31,0.3-0.4,0.51    s-0.15,0.47-0.15,0.78v0.13H114.25z M109.53,42.05v-0.21c0-0.13,0.01-0.25,0.04-0.38c0.02-0.13,0.06-0.24,0.11-0.35    c0.05-0.1,0.12-0.19,0.22-0.25c0.09-0.06,0.2-0.1,0.35-0.1c0.14,0,0.25,0.03,0.34,0.09c0.09,0.06,0.16,0.14,0.21,0.25    c0.05,0.11,0.08,0.24,0.1,0.4c0.02,0.16,0.03,0.34,0.04,0.55H109.53z M112.26,42.87v-0.31c0-0.41-0.03-0.79-0.08-1.12    c-0.05-0.34-0.15-0.62-0.3-0.86c-0.15-0.24-0.35-0.42-0.61-0.55c-0.26-0.13-0.58-0.19-0.99-0.19c-0.47,0-0.84,0.08-1.12,0.23    c-0.28,0.15-0.5,0.36-0.65,0.62c-0.15,0.26-0.25,0.56-0.3,0.89c-0.05,0.33-0.07,0.68-0.07,1.04c0,0.33,0.01,0.67,0.04,1.02    c0.03,0.34,0.11,0.65,0.25,0.93c0.13,0.28,0.34,0.5,0.62,0.68c0.28,0.17,0.67,0.26,1.17,0.26c0.66,0,1.14-0.17,1.45-0.51    c0.31-0.34,0.47-0.82,0.5-1.44h-1.24c-0.04,0.34-0.11,0.59-0.22,0.76c-0.11,0.17-0.28,0.25-0.51,0.25c-0.13,0-0.23-0.03-0.32-0.1    c-0.09-0.07-0.16-0.16-0.21-0.28c-0.05-0.12-0.09-0.25-0.11-0.4c-0.02-0.15-0.04-0.31-0.04-0.47v-0.43H112.26z M104.87,45.35h1.38    v-3.23c0-0.18,0.03-0.33,0.09-0.46c0.06-0.12,0.14-0.22,0.24-0.3c0.1-0.08,0.21-0.13,0.33-0.17c0.12-0.03,0.24-0.05,0.36-0.05    c0.07,0,0.14,0,0.21,0.01c0.07,0,0.14,0.01,0.22,0.01v-1.32c-0.04-0.01-0.08-0.01-0.12-0.01c-0.04,0-0.08-0.01-0.12-0.01    c-0.29,0-0.53,0.08-0.73,0.24c-0.2,0.16-0.37,0.37-0.51,0.62h-0.02v-0.72h-1.32V45.35z M98.69,45.35h1.5l0.33-1.51h1.9l0.33,1.51    h1.5l-1.89-7.14h-1.78L98.69,45.35z M101.46,39.45h0.02l0.69,3.21h-1.4L101.46,39.45z M93.3,42.05v-0.21    c0-0.13,0.01-0.25,0.03-0.38c0.02-0.13,0.06-0.24,0.12-0.35c0.05-0.1,0.12-0.19,0.21-0.25c0.09-0.06,0.21-0.1,0.35-0.1    s0.25,0.03,0.35,0.09c0.09,0.06,0.16,0.14,0.21,0.25c0.05,0.11,0.08,0.24,0.1,0.4c0.02,0.16,0.03,0.34,0.04,0.55H93.3z     M96.03,42.87v-0.31c0-0.41-0.03-0.79-0.08-1.12c-0.05-0.34-0.15-0.62-0.3-0.86c-0.15-0.24-0.35-0.42-0.61-0.55    c-0.26-0.13-0.58-0.19-0.99-0.19c-0.47,0-0.84,0.08-1.12,0.23s-0.5,0.36-0.65,0.62c-0.15,0.26-0.25,0.56-0.3,0.89    c-0.05,0.33-0.08,0.68-0.08,1.04c0,0.33,0.01,0.67,0.05,1.02c0.03,0.34,0.11,0.65,0.24,0.93c0.13,0.28,0.34,0.5,0.62,0.68    s0.67,0.26,1.17,0.26c0.66,0,1.14-0.17,1.45-0.51c0.31-0.34,0.47-0.82,0.5-1.44h-1.24c-0.04,0.34-0.11,0.59-0.22,0.76    c-0.11,0.17-0.28,0.25-0.51,0.25c-0.13,0-0.23-0.03-0.32-0.1c-0.09-0.07-0.16-0.16-0.21-0.28c-0.05-0.12-0.09-0.25-0.12-0.4    c-0.02-0.15-0.03-0.31-0.03-0.47v-0.43H96.03z M89.69,45.35h1.38v-7.14h-1.38V45.35z M87.25,45.35h1.38v-5.38h-1.38V45.35z     M87.25,39.31h1.38v-1.18h-1.38V39.31z M84.52,45.35h1.38v-4.44h0.8v-0.94h-0.8V39.5c0-0.15,0.04-0.26,0.12-0.33    c0.08-0.07,0.22-0.1,0.41-0.1h0.13c0.06,0,0.11,0,0.14,0.01V38.1c-0.25-0.02-0.5-0.03-0.74-0.03c-0.22,0-0.42,0.02-0.6,0.06    s-0.33,0.12-0.46,0.22c-0.12,0.1-0.22,0.23-0.28,0.4c-0.07,0.17-0.1,0.37-0.1,0.61v0.61h-0.7v0.94h0.7V45.35z M80.51,41.9    c0.01-0.23,0.04-0.43,0.1-0.6s0.12-0.3,0.22-0.39c0.1-0.09,0.23-0.14,0.4-0.14c0.28,0,0.47,0.15,0.58,0.44    c0.11,0.29,0.16,0.78,0.16,1.45s-0.05,1.16-0.16,1.45c-0.11,0.29-0.3,0.44-0.58,0.44c-0.17,0-0.31-0.05-0.4-0.14    c-0.1-0.09-0.17-0.22-0.22-0.39s-0.08-0.37-0.1-0.6c-0.01-0.23-0.02-0.49-0.02-0.76C80.49,42.39,80.5,42.14,80.51,41.9     M79.21,43.9c0.07,0.35,0.18,0.65,0.34,0.89c0.16,0.24,0.38,0.42,0.65,0.53c0.27,0.12,0.62,0.17,1.03,0.17    c0.39,0,0.72-0.06,1-0.19c0.27-0.12,0.49-0.3,0.65-0.54c0.17-0.24,0.29-0.53,0.36-0.89c0.07-0.35,0.11-0.76,0.11-1.22    c0-0.47-0.03-0.88-0.1-1.24c-0.07-0.36-0.18-0.66-0.34-0.9c-0.16-0.24-0.38-0.42-0.65-0.53c-0.27-0.12-0.62-0.17-1.03-0.17    c-0.39,0-0.72,0.06-1,0.19c-0.27,0.12-0.49,0.3-0.65,0.54c-0.17,0.24-0.29,0.53-0.36,0.88c-0.07,0.35-0.11,0.76-0.11,1.22    C79.11,43.14,79.14,43.55,79.21,43.9 M75.83,45.35h1.38v-3.23c0-0.18,0.03-0.33,0.09-0.46c0.06-0.12,0.14-0.22,0.24-0.3    s0.21-0.13,0.33-0.17c0.12-0.03,0.24-0.05,0.36-0.05c0.07,0,0.14,0,0.21,0.01c0.07,0,0.14,0.01,0.22,0.01v-1.32    c-0.04-0.01-0.08-0.01-0.12-0.01c-0.04,0-0.08-0.01-0.12-0.01c-0.29,0-0.53,0.08-0.73,0.24c-0.2,0.16-0.37,0.37-0.51,0.62h-0.02    v-0.72h-1.32V45.35z M70.62,45.35h1.44V42.5h0.77c0.34,0,0.65-0.04,0.93-0.13c0.28-0.09,0.52-0.22,0.71-0.39    c0.2-0.17,0.35-0.4,0.46-0.67c0.11-0.27,0.16-0.59,0.16-0.97c0-0.27-0.03-0.53-0.1-0.78s-0.18-0.49-0.33-0.69    c-0.15-0.2-0.35-0.36-0.6-0.49c-0.25-0.12-0.56-0.18-0.93-0.18h-2.52V45.35z M72.06,39.27h0.6c0.36,0,0.62,0.09,0.77,0.28    s0.23,0.46,0.23,0.82c0,0.37-0.09,0.64-0.26,0.81c-0.18,0.17-0.41,0.26-0.69,0.26h-0.64V39.27z"/>
		<path class="st8" d="M62.64,51.96c-0.04-2.03-0.54-3.54-1.5-4.54c-0.96-1-2.49-1.5-4.57-1.5c-1.38,0-2.48,0.22-3.31,0.65    c-0.83,0.44-1.47,0.97-1.93,1.59c-0.46,0.63-0.75,1.28-0.9,1.96c-0.14,0.68-0.21,1.27-0.21,1.78c0,0.99,0.15,1.82,0.44,2.49    c0.29,0.67,0.68,1.22,1.16,1.66c0.48,0.44,1.03,0.79,1.65,1.06c0.62,0.27,1.25,0.52,1.9,0.74c0.64,0.22,1.27,0.44,1.9,0.65    c0.62,0.21,1.17,0.49,1.65,0.82s0.87,0.74,1.16,1.23c0.3,0.49,0.44,1.11,0.44,1.88c0,0.59-0.1,1.11-0.29,1.58    c-0.19,0.47-0.46,0.87-0.79,1.2s-0.73,0.59-1.2,0.78c-0.47,0.18-0.96,0.27-1.49,0.27c-0.97,0-1.73-0.15-2.28-0.44    c-0.55-0.29-0.95-0.68-1.22-1.17s-0.42-1.03-0.49-1.63c-0.06-0.6-0.09-1.2-0.09-1.81h-2.74c0,1.15,0.11,2.18,0.32,3.08    c0.21,0.9,0.57,1.66,1.06,2.26c0.5,0.61,1.16,1.07,2.01,1.4s1.9,0.49,3.18,0.49c0.77,0,1.55-0.1,2.35-0.3    c0.8-0.2,1.52-0.55,2.17-1.03c0.65-0.49,1.18-1.14,1.59-1.97c0.42-0.83,0.62-1.87,0.62-3.13c0-1.32-0.26-2.35-0.76-3.1    c-0.51-0.75-1.15-1.34-1.91-1.76c-0.76-0.42-1.59-0.76-2.48-1.02c-0.89-0.25-1.71-0.54-2.48-0.87c-0.76-0.32-1.4-0.76-1.91-1.31    c-0.51-0.55-0.76-1.33-0.76-2.34c0-1.15,0.31-2.03,0.93-2.63c0.62-0.6,1.5-0.9,2.66-0.9c0.63,0,1.16,0.1,1.6,0.29    c0.43,0.19,0.78,0.46,1.05,0.79c0.26,0.33,0.45,0.74,0.56,1.22c0.11,0.48,0.17,1,0.17,1.56H62.64z M47.45,51.96    c-0.04-2.03-0.54-3.54-1.5-4.54c-0.96-1-2.49-1.5-4.57-1.5c-1.38,0-2.48,0.22-3.31,0.65c-0.83,0.44-1.47,0.97-1.93,1.59    c-0.46,0.63-0.75,1.28-0.9,1.96c-0.14,0.68-0.21,1.27-0.21,1.78c0,0.99,0.15,1.82,0.44,2.49c0.3,0.67,0.68,1.22,1.16,1.66    c0.48,0.44,1.03,0.79,1.65,1.06c0.62,0.27,1.25,0.52,1.9,0.74c0.64,0.22,1.27,0.44,1.9,0.65c0.62,0.21,1.17,0.49,1.65,0.82    s0.87,0.74,1.16,1.23c0.3,0.49,0.44,1.11,0.44,1.88c0,0.59-0.1,1.11-0.29,1.58c-0.19,0.47-0.45,0.87-0.79,1.2    c-0.33,0.33-0.73,0.59-1.2,0.78c-0.47,0.18-0.96,0.27-1.49,0.27c-0.97,0-1.73-0.15-2.28-0.44c-0.55-0.29-0.95-0.68-1.22-1.17    c-0.26-0.49-0.43-1.03-0.49-1.63c-0.06-0.6-0.09-1.2-0.09-1.81h-2.74c0,1.15,0.11,2.18,0.32,3.08c0.21,0.9,0.57,1.66,1.06,2.26    c0.5,0.61,1.17,1.07,2.01,1.4c0.84,0.32,1.9,0.49,3.18,0.49c0.77,0,1.56-0.1,2.35-0.3c0.8-0.2,1.52-0.55,2.17-1.03    c0.65-0.49,1.18-1.14,1.6-1.97c0.42-0.83,0.62-1.87,0.62-3.13c0-1.32-0.26-2.35-0.76-3.1c-0.51-0.75-1.15-1.34-1.91-1.76    c-0.76-0.42-1.59-0.76-2.48-1.02c-0.89-0.25-1.71-0.54-2.48-0.87c-0.76-0.32-1.4-0.76-1.91-1.31c-0.51-0.55-0.76-1.33-0.76-2.34    c0-1.15,0.31-2.03,0.93-2.63c0.62-0.6,1.5-0.9,2.66-0.9c0.63,0,1.16,0.1,1.6,0.29c0.44,0.19,0.79,0.46,1.05,0.79    c0.26,0.33,0.45,0.74,0.56,1.22c0.11,0.48,0.17,1,0.17,1.56H47.45z M14.17,68.03h2.73V49.07h0.06l4.8,18.96h2.74l4.8-18.96h0.06    v18.96h2.74v-21.7h-4.59l-4.35,17.2h-0.06l-4.35-17.2h-4.59V68.03z"/>
	</g>
</g>
</svg>